<svg width="36" height="36" viewBox="0 0 36 36" fill="none" xmlns="http://www.w3.org/2000/svg">
<path d="M36 0H0V16.1905C0.380952 30.381 13.1429 34.6667 18 36C34.381 31.4286 35.4286 21.7143 36 16.1905V0Z" fill="#F96343"/>
<path d="M10.4766 12.3817C10.4766 8.27901 13.8024 4.95312 17.9051 4.95312H25.3337V12.3817C25.3337 16.4844 22.0078 19.8103 17.9051 19.8103C13.8024 19.8103 10.4766 16.4844 10.4766 12.3817Z" fill="white"/>
<path d="M21.1442 12.3812C21.1442 14.1695 19.6944 15.6193 17.9061 15.6193C16.1177 15.6193 14.668 14.1695 14.668 12.3812C14.668 10.5928 16.1177 9.14307 17.9061 9.14307C19.6944 9.14307 21.1442 10.5928 21.1442 12.3812Z" fill="#F96343"/>
<path d="M10.4766 26.2857C10.4766 23.8662 12.438 21.9048 14.8575 21.9048H25.5242C25.5242 24.3243 23.5628 26.2857 21.1432 26.2857H10.4766Z" fill="white"/>
</svg>
